<svg width="19" height="60" viewBox="0 0 19 60" fill="none" xmlns="http://www.w3.org/2000/svg">
<path d="M9.19775 28.89L16.2253 35.72L18.2904 33.71L9.19775 24.86L0.115479 33.71L2.18058 35.72L9.19775 28.89Z" fill="#969696"/>
<path d="M9.19775 40.82L16.2253 47.65L18.2904 45.64L9.19775 36.79L0.115479 45.64L2.18058 47.65L9.19775 40.82Z" fill="#969696"/>
<path d="M9.19775 52.89L16.2253 59.73L18.2904 57.71L9.19775 48.87L0.115479 57.71L2.18058 59.73L9.19775 52.89Z" fill="#969696"/>
<path d="M9.19775 4.89001L16.2253 11.72L18.2904 9.70999L9.19775 0.859985L0.115479 9.70999L2.18058 11.72L9.19775 4.89001Z" fill="#969696"/>
<path d="M9.19775 16.82L16.2253 23.65L18.2904 21.64L9.19775 12.79L0.115479 21.64L2.18058 23.65L9.19775 16.82Z" fill="#969696"/>
</svg>
