<svg width="19" height="60" viewBox="0 0 19 60" fill="none" xmlns="http://www.w3.org/2000/svg">
<path d="M9.20825 31.7L2.18074 24.87L0.115635 26.88L9.20825 35.73L18.2905 26.88L16.2254 24.87L9.20825 31.7Z" fill="#969696"/>
<path d="M9.20825 19.7699L2.18074 12.9399L0.115635 14.9499L9.20825 23.7999L18.2905 14.9499L16.2254 12.9399L9.20825 19.7699Z" fill="#969696"/>
<path d="M9.20825 7.69995L2.18074 0.859955L0.115635 2.87997L9.20825 11.72L18.2905 2.87997L16.2254 0.859955L9.20825 7.69995Z" fill="#969696"/>
<path d="M9.20825 55.7L2.18074 48.87L0.115635 50.88L9.20825 59.73L18.2905 50.88L16.2254 48.87L9.20825 55.7Z" fill="#969696"/>
<path d="M9.20825 43.7699L2.18074 36.9399L0.115635 38.9499L9.20825 47.7999L18.2905 38.9499L16.2254 36.9399L9.20825 43.7699Z" fill="#969696"/>
</svg>
