<svg xmlns="http://www.w3.org/2000/svg" xmlns:xlink="http://www.w3.org/1999/xlink" width="240" zoomAndPan="magnify" viewBox="0 0 180 89.999999" height="120" preserveAspectRatio="xMidYMid meet" version="1.0"><defs><g/></defs><g fill="#c66f2c" fill-opacity="1"><g transform="translate(3.752832, 51.876716)"><g><path d="M 20.203125 -5.984375 C 20.203125 -3.921875 19.484375 -2.296875 18.046875 -1.109375 C 16.753906 -0.046875 15.175781 0.484375 13.3125 0.484375 C 12.664062 0.484375 11.929688 0.457031 11.109375 0.40625 C 9.222656 0.300781 8.078125 0.25 7.671875 0.25 C 7.253906 0.25 6.835938 0.269531 6.421875 0.3125 L 4.53125 0.46875 C 3.507812 0.46875 3 0.265625 3 -0.140625 C 3 -0.679688 3.515625 -1.140625 4.546875 -1.515625 C 5.046875 -1.691406 5.296875 -1.898438 5.296875 -2.140625 C 5.296875 -3.429688 5.304688 -4.445312 5.328125 -5.1875 L 5.40625 -11.5625 C 5.40625 -13 5.378906 -14.738281 5.328125 -16.78125 L 5.25 -20.34375 C 5.25 -20.519531 4.773438 -20.765625 3.828125 -21.078125 C 2.890625 -21.398438 2.421875 -21.890625 2.421875 -22.546875 C 2.421875 -23.140625 2.835938 -23.4375 3.671875 -23.4375 C 3.859375 -23.4375 4.570312 -23.382812 5.8125 -23.28125 C 6.5 -23.21875 7.117188 -23.1875 7.671875 -23.1875 C 8.242188 -23.1875 9.109375 -23.21875 10.265625 -23.28125 C 11.421875 -23.351562 12.289062 -23.390625 12.875 -23.390625 C 14.019531 -23.390625 15.253906 -22.9375 16.578125 -22.03125 C 18.085938 -21.019531 18.84375 -19.851562 18.84375 -18.53125 C 18.84375 -17.332031 18.585938 -16.191406 18.078125 -15.109375 C 17.566406 -14.023438 16.960938 -13.304688 16.265625 -12.953125 C 17.441406 -12.554688 18.398438 -11.664062 19.140625 -10.28125 C 19.847656 -8.976562 20.203125 -7.546875 20.203125 -5.984375 Z M 15.984375 -18.171875 C 15.984375 -20.609375 14.40625 -21.828125 11.25 -21.828125 C 9.707031 -21.828125 8.753906 -21.484375 8.390625 -20.796875 C 8.179688 -20.390625 8.078125 -19.289062 8.078125 -17.5 C 8.078125 -15.925781 8.097656 -14.992188 8.140625 -14.703125 C 8.359375 -13.554688 8.921875 -12.984375 9.828125 -12.984375 C 11.941406 -12.984375 13.457031 -13.316406 14.375 -13.984375 C 15.445312 -14.773438 15.984375 -16.171875 15.984375 -18.171875 Z M 17.6875 -6.609375 C 17.6875 -8.015625 17.140625 -9.203125 16.046875 -10.171875 C 14.960938 -11.140625 13.648438 -11.625 12.109375 -11.625 C 10.722656 -11.625 9.882812 -11.585938 9.59375 -11.515625 C 8.769531 -11.296875 8.359375 -10.695312 8.359375 -9.71875 L 8.359375 -3.328125 C 8.359375 -1.804688 9.582031 -1.046875 12.03125 -1.046875 C 13.632812 -1.046875 14.976562 -1.570312 16.0625 -2.625 C 17.144531 -3.675781 17.6875 -5.003906 17.6875 -6.609375 Z M 17.6875 -6.609375 "/></g></g></g><g fill="#c66f2c" fill-opacity="1"><g transform="translate(25.863198, 51.876716)"><g><path d="M 25.984375 -11.921875 C 25.984375 -8.492188 24.820312 -5.546875 22.5 -3.078125 C 20.132812 -0.546875 17.25 0.71875 13.84375 0.71875 C 10.5 0.71875 7.644531 -0.398438 5.28125 -2.640625 C 2.875 -4.929688 1.671875 -7.734375 1.671875 -11.046875 C 1.671875 -14.535156 2.882812 -17.492188 5.3125 -19.921875 C 7.738281 -22.347656 10.695312 -23.5625 14.1875 -23.5625 C 17.382812 -23.5625 20.148438 -22.421875 22.484375 -20.140625 C 24.816406 -17.859375 25.984375 -15.117188 25.984375 -11.921875 Z M 22.640625 -10.71875 C 22.640625 -13.695312 21.890625 -16.269531 20.390625 -18.4375 C 18.703125 -20.851562 16.476562 -22.0625 13.71875 -22.0625 C 10.945312 -22.0625 8.78125 -20.960938 7.21875 -18.765625 C 5.863281 -16.835938 5.1875 -14.488281 5.1875 -11.71875 C 5.1875 -10.050781 5.488281 -8.425781 6.09375 -6.84375 C 6.738281 -5.125 7.628906 -3.75 8.765625 -2.71875 C 10.160156 -1.457031 11.816406 -0.828125 13.734375 -0.828125 C 16.472656 -0.828125 18.671875 -1.800781 20.328125 -3.75 C 21.867188 -5.582031 22.640625 -7.90625 22.640625 -10.71875 Z M 22.640625 -10.71875 "/></g></g></g><g fill="#c66f2c" fill-opacity="1"><g transform="translate(53.150626, 51.876716)"><g><path d="M 25.34375 -0.921875 C 25.34375 -0.179688 24.914062 0.1875 24.0625 0.1875 C 23.769531 0.1875 23.207031 0.125 22.375 0 C 21.925781 -0.0625 21.546875 -0.09375 21.234375 -0.09375 C 20.910156 -0.09375 20.3125 -0.0507812 19.4375 0.03125 C 18.914062 0.0820312 18.507812 0.109375 18.21875 0.109375 C 17.625 0.109375 17.328125 -0.269531 17.328125 -1.03125 C 17.328125 -1.226562 17.539062 -1.398438 17.96875 -1.546875 C 18.570312 -1.734375 18.972656 -1.910156 19.171875 -2.078125 C 19.609375 -2.421875 19.828125 -2.9375 19.828125 -3.625 C 19.828125 -4.21875 19.804688 -5.109375 19.765625 -6.296875 C 19.722656 -7.484375 19.703125 -8.375 19.703125 -8.96875 C 19.703125 -9.96875 19.316406 -10.476562 18.546875 -10.5 C 15.023438 -10.582031 13.234375 -10.625 13.171875 -10.625 C 12.597656 -10.625 11.738281 -10.59375 10.59375 -10.53125 C 9.457031 -10.46875 8.609375 -10.4375 8.046875 -10.4375 C 7.304688 -10.4375 6.9375 -9.90625 6.9375 -8.84375 C 6.9375 -7.957031 6.921875 -6.929688 6.890625 -5.765625 L 6.84375 -3.75 C 6.84375 -2.519531 7.484375 -1.796875 8.765625 -1.578125 C 9.378906 -1.472656 9.6875 -1.1875 9.6875 -0.71875 C 9.6875 -0.164062 9.390625 0.109375 8.796875 0.109375 C 8.398438 0.109375 8.019531 0.0859375 7.65625 0.046875 C 6.550781 -0.0546875 5.921875 -0.109375 5.765625 -0.109375 C 5.523438 -0.109375 4.960938 -0.0664062 4.078125 0.015625 C 3.578125 0.0664062 3.210938 0.09375 2.984375 0.09375 C 2.171875 0.09375 1.765625 -0.175781 1.765625 -0.71875 C 1.765625 -0.945312 1.960938 -1.144531 2.359375 -1.3125 C 2.910156 -1.539062 3.273438 -1.738281 3.453125 -1.90625 C 3.847656 -2.28125 4.046875 -2.816406 4.046875 -3.515625 C 4.046875 -4.441406 4.117188 -5.828125 4.265625 -7.671875 C 4.390625 -9.460938 4.453125 -10.84375 4.453125 -11.8125 L 4.4375 -18.8125 C 4.4375 -19.8125 4.21875 -20.550781 3.78125 -21.03125 C 3.550781 -21.28125 3.132812 -21.523438 2.53125 -21.765625 C 2.101562 -21.941406 1.890625 -22.148438 1.890625 -22.390625 C 1.890625 -22.941406 2.242188 -23.21875 2.953125 -23.21875 C 3.304688 -23.21875 3.84375 -23.175781 4.5625 -23.09375 C 5.289062 -23.007812 5.835938 -22.96875 6.203125 -22.96875 C 6.578125 -22.96875 7.125 -23.007812 7.84375 -23.09375 C 8.5625 -23.175781 9.097656 -23.21875 9.453125 -23.21875 C 9.972656 -23.21875 10.234375 -22.929688 10.234375 -22.359375 C 10.234375 -22.128906 9.96875 -21.929688 9.4375 -21.765625 C 8.75 -21.535156 8.265625 -21.296875 7.984375 -21.046875 C 7.453125 -20.554688 7.1875 -19.8125 7.1875 -18.8125 C 7.1875 -18.320312 7.175781 -17.632812 7.15625 -16.75 C 7.113281 -15.789062 7.09375 -15.109375 7.09375 -14.703125 C 7.082031 -13.191406 7.390625 -12.4375 8.015625 -12.4375 C 8.597656 -12.4375 9.472656 -12.410156 10.640625 -12.359375 C 11.816406 -12.316406 12.695312 -12.296875 13.28125 -12.296875 C 13.90625 -12.296875 14.832031 -12.316406 16.0625 -12.359375 C 17.289062 -12.410156 18.21875 -12.4375 18.84375 -12.4375 C 19.1875 -12.4375 19.484375 -12.644531 19.734375 -13.0625 C 19.960938 -13.4375 20.070312 -13.804688 20.0625 -14.171875 L 19.984375 -18.875 C 19.972656 -19.851562 19.757812 -20.570312 19.34375 -21.03125 C 19.101562 -21.28125 18.710938 -21.492188 18.171875 -21.671875 C 17.753906 -21.804688 17.546875 -21.984375 17.546875 -22.203125 C 17.546875 -22.835938 17.863281 -23.15625 18.5 -23.15625 C 18.820312 -23.15625 19.304688 -23.109375 19.953125 -23.015625 C 20.609375 -22.921875 21.097656 -22.875 21.421875 -22.875 C 21.785156 -22.875 22.410156 -22.929688 23.296875 -23.046875 C 23.785156 -23.117188 24.210938 -23.15625 24.578125 -23.15625 C 25.078125 -23.15625 25.328125 -22.953125 25.328125 -22.546875 C 25.328125 -22.046875 25.0625 -21.707031 24.53125 -21.53125 C 23.332031 -21.113281 22.734375 -20.148438 22.734375 -18.640625 C 22.734375 -17.878906 22.632812 -16.390625 22.4375 -14.171875 C 22.332031 -13.054688 22.28125 -12.171875 22.28125 -11.515625 C 22.28125 -10.628906 22.316406 -9.300781 22.390625 -7.53125 C 22.472656 -5.769531 22.515625 -4.453125 22.515625 -3.578125 C 22.515625 -2.910156 22.753906 -2.40625 23.234375 -2.0625 C 23.429688 -1.945312 23.890625 -1.773438 24.609375 -1.546875 C 25.097656 -1.378906 25.34375 -1.171875 25.34375 -0.921875 Z M 25.34375 -0.921875 "/></g></g></g><g fill="#c66f2c" fill-opacity="1"><g transform="translate(80.330198, 51.876716)"><g><path d="M 24.59375 -0.765625 C 24.59375 -0.0976562 24.429688 0.234375 24.109375 0.234375 C 23.753906 0.234375 23.28125 0.191406 22.6875 0.109375 C 21.289062 -0.0546875 20.394531 -0.140625 20 -0.140625 C 19.675781 -0.140625 18.992188 -0.0625 17.953125 0.09375 C 17.398438 0.1875 16.941406 0.234375 16.578125 0.234375 C 15.753906 0.234375 15.34375 -0.148438 15.34375 -0.921875 C 15.34375 -1.179688 15.578125 -1.425781 16.046875 -1.65625 C 16.679688 -1.96875 17.113281 -2.25 17.34375 -2.5 C 17.800781 -3 18.03125 -3.710938 18.03125 -4.640625 C 18.03125 -5.523438 17.84375 -6.382812 17.46875 -7.21875 C 16.988281 -8.28125 16.359375 -8.8125 15.578125 -8.8125 C 15.328125 -8.8125 14.945312 -8.820312 14.4375 -8.84375 C 13.925781 -8.875 13.539062 -8.890625 13.28125 -8.890625 C 13.007812 -8.890625 12.613281 -8.878906 12.09375 -8.859375 C 11.539062 -8.828125 11.140625 -8.8125 10.890625 -8.8125 C 9.816406 -8.800781 8.863281 -7.800781 8.03125 -5.8125 C 7.40625 -4.332031 7.09375 -3.335938 7.09375 -2.828125 C 7.09375 -2.359375 7.5625 -1.988281 8.5 -1.71875 C 9.4375 -1.445312 9.90625 -1.128906 9.90625 -0.765625 C 9.90625 -0.128906 9.507812 0.1875 8.71875 0.1875 C 8.3125 0.1875 7.835938 0.15625 7.296875 0.09375 C 6.046875 -0.0195312 5.203125 -0.078125 4.765625 -0.078125 C 4.078125 -0.078125 3.195312 0.0078125 2.125 0.1875 L 1.6875 0.1875 C 0.851562 0.1875 0.4375 -0.0820312 0.4375 -0.625 C 0.4375 -1.226562 0.851562 -1.613281 1.6875 -1.78125 C 2.820312 -2.019531 3.5 -2.222656 3.71875 -2.390625 C 4.726562 -3.203125 5.554688 -4.421875 6.203125 -6.046875 L 8.828125 -12.53125 C 9.847656 -15.0625 10.726562 -17.3125 11.46875 -19.28125 C 12.082031 -20.925781 12.566406 -22.0625 12.921875 -22.6875 C 13.421875 -23.5625 13.90625 -24 14.375 -24 C 14.9375 -24 15.359375 -23.53125 15.640625 -22.59375 C 15.785156 -22.007812 16.015625 -21.140625 16.328125 -19.984375 C 16.703125 -18.828125 17.226562 -17.179688 17.90625 -15.046875 C 18.445312 -13.210938 18.925781 -11.503906 19.34375 -9.921875 C 19.570312 -8.992188 19.921875 -7.601562 20.390625 -5.75 C 20.796875 -4.238281 21.289062 -3.238281 21.875 -2.75 C 22.050781 -2.59375 22.617188 -2.3125 23.578125 -1.90625 C 24.253906 -1.601562 24.59375 -1.222656 24.59375 -0.765625 Z M 15.9375 -12.046875 C 15.9375 -12.347656 15.679688 -13.367188 15.171875 -15.109375 C 14.523438 -17.285156 13.925781 -18.375 13.375 -18.375 C 12.976562 -18.375 12.359375 -17.15625 11.515625 -14.71875 C 10.953125 -13.050781 10.671875 -12.007812 10.671875 -11.59375 C 10.671875 -11.007812 11.007812 -10.660156 11.6875 -10.546875 C 11.71875 -10.535156 12.289062 -10.53125 13.40625 -10.53125 L 14.09375 -10.53125 C 14.875 -10.53125 15.359375 -10.601562 15.546875 -10.75 C 15.804688 -10.925781 15.9375 -11.359375 15.9375 -12.046875 Z M 15.9375 -12.046875 "/></g></g></g><g fill="#c66f2c" fill-opacity="1"><g transform="translate(105.855986, 51.876716)"><g><path d="M 29.71875 -0.859375 C 29.71875 -0.597656 29.601562 -0.320312 29.375 -0.03125 C 29.144531 0.25 28.910156 0.390625 28.671875 0.390625 C 28.390625 0.390625 27.96875 0.335938 27.40625 0.234375 C 26.851562 0.140625 26.4375 0.09375 26.15625 0.09375 C 25.875 0.09375 25.453125 0.140625 24.890625 0.234375 C 24.335938 0.335938 23.925781 0.390625 23.65625 0.390625 C 22.476562 0.390625 21.890625 0.0859375 21.890625 -0.515625 C 21.890625 -0.941406 22.316406 -1.453125 23.171875 -2.046875 C 24.035156 -2.640625 24.46875 -3.414062 24.46875 -4.375 C 24.46875 -4.4375 24.519531 -5.40625 24.625 -7.28125 C 24.6875 -8.4375 24.71875 -9.300781 24.71875 -9.875 C 24.71875 -10.53125 24.691406 -11.382812 24.640625 -12.4375 C 24.578125 -13.757812 24.546875 -14.617188 24.546875 -15.015625 C 24.523438 -15.910156 24.242188 -16.359375 23.703125 -16.359375 C 23.492188 -16.359375 23.007812 -15.640625 22.25 -14.203125 C 21.882812 -13.503906 21.09375 -11.890625 19.875 -9.359375 C 18.875 -7.265625 18.019531 -5.585938 17.3125 -4.328125 C 17.132812 -4.003906 16.71875 -3.09375 16.0625 -1.59375 C 15.613281 -0.5625 15.304688 -0.046875 15.140625 -0.046875 C 14.765625 -0.046875 14.394531 -0.546875 14.03125 -1.546875 C 13.925781 -1.804688 13.539062 -2.992188 12.875 -5.109375 L 10.75 -9.453125 C 8.59375 -13.859375 7.34375 -16.0625 7 -16.0625 C 6.65625 -16.0625 6.398438 -15.410156 6.234375 -14.109375 C 6.128906 -13.242188 6.078125 -12.441406 6.078125 -11.703125 C 6.078125 -10.015625 6.113281 -7.390625 6.1875 -3.828125 C 6.195312 -3.441406 6.625 -2.929688 7.46875 -2.296875 C 8.3125 -1.671875 8.734375 -1.175781 8.734375 -0.8125 C 8.734375 -0.132812 8.441406 0.203125 7.859375 0.203125 C 7.804688 0.203125 7.304688 0.132812 6.359375 0 C 5.878906 -0.0625 5.488281 -0.09375 5.1875 -0.09375 C 4.925781 -0.09375 4.390625 -0.0507812 3.578125 0.03125 C 3.097656 0.0820312 2.769531 0.109375 2.59375 0.109375 C 2.113281 0.109375 1.875 -0.269531 1.875 -1.03125 C 1.875 -1.144531 2.085938 -1.375 2.515625 -1.71875 C 3.054688 -2.164062 3.457031 -2.570312 3.71875 -2.9375 C 4.15625 -3.539062 4.375 -4.234375 4.375 -5.015625 C 4.53125 -6.441406 4.609375 -8.378906 4.609375 -10.828125 C 4.609375 -11.722656 4.578125 -12.890625 4.515625 -14.328125 C 4.453125 -16.148438 4.414062 -17.316406 4.40625 -17.828125 C 4.382812 -18.984375 4.117188 -19.90625 3.609375 -20.59375 C 3.609375 -20.59375 3.03125 -21.332031 1.875 -22.8125 C 1.875 -23.382812 2.175781 -23.671875 2.78125 -23.671875 C 2.863281 -23.671875 3.195312 -23.578125 3.78125 -23.390625 L 4.9375 -23.015625 C 5.539062 -22.910156 6.390625 -22.695312 7.484375 -22.375 C 7.835938 -22.21875 8.125 -21.890625 8.34375 -21.390625 C 8.425781 -21.179688 8.566406 -20.691406 8.765625 -19.921875 C 8.835938 -19.640625 9.113281 -19.007812 9.59375 -18.03125 C 9.976562 -17.300781 10.535156 -16.203125 11.265625 -14.734375 C 11.992188 -13.273438 12.613281 -11.984375 13.125 -10.859375 C 13.832031 -9.285156 14.367188 -8.148438 14.734375 -7.453125 C 15.253906 -6.472656 15.628906 -5.984375 15.859375 -5.984375 C 16.210938 -5.984375 16.660156 -6.40625 17.203125 -7.25 C 17.617188 -7.914062 18.15625 -8.957031 18.8125 -10.375 L 20.84375 -14.734375 C 21.632812 -16.429688 22.28125 -17.890625 22.78125 -19.109375 C 22.875 -19.335938 23.09375 -20.109375 23.4375 -21.421875 C 23.570312 -21.890625 23.6875 -22.1875 23.78125 -22.3125 C 24 -22.550781 24.71875 -22.847656 25.9375 -23.203125 C 27.101562 -23.535156 27.898438 -23.703125 28.328125 -23.703125 C 28.785156 -23.703125 29.015625 -23.5 29.015625 -23.09375 C 29.015625 -22.914062 28.695312 -22.492188 28.0625 -21.828125 C 27.425781 -21.160156 27.109375 -20.664062 27.109375 -20.34375 C 27.109375 -18.6875 27.09375 -16.878906 27.0625 -14.921875 C 27.007812 -11.410156 26.984375 -9.660156 26.984375 -9.671875 L 27.140625 -4.265625 C 27.179688 -3.222656 27.617188 -2.476562 28.453125 -2.03125 C 29.296875 -1.582031 29.71875 -1.191406 29.71875 -0.859375 Z M 29.71875 -0.859375 "/></g></g></g><g fill="#c66f2c" fill-opacity="1"><g transform="translate(137.008238, 51.876716)"><g><path d="M 11.03125 -22.203125 C 11.03125 -21.796875 10.75 -21.53125 10.1875 -21.40625 C 9.582031 -21.289062 9.09375 -20.953125 8.71875 -20.390625 C 8.351562 -19.867188 8.171875 -19.285156 8.171875 -18.640625 L 8.171875 -5.40625 C 8.171875 -3.332031 8.757812 -2.101562 9.9375 -1.71875 C 10.46875 -1.550781 10.734375 -1.242188 10.734375 -0.796875 C 10.734375 -0.140625 10.40625 0.1875 9.75 0.1875 C 9.394531 0.1875 8.867188 0.132812 8.171875 0.03125 C 7.484375 -0.0703125 6.96875 -0.125 6.625 -0.125 C 6.28125 -0.125 5.757812 -0.0703125 5.0625 0.03125 C 4.375 0.132812 3.851562 0.1875 3.5 0.1875 C 2.988281 0.1875 2.734375 -0.0859375 2.734375 -0.640625 C 2.734375 -0.859375 3.164062 -1.191406 4.03125 -1.640625 C 4.6875 -1.972656 5.125 -2.546875 5.34375 -3.359375 C 5.457031 -3.847656 5.515625 -4.640625 5.515625 -5.734375 L 5.515625 -18.609375 C 5.515625 -20.054688 5.046875 -20.992188 4.109375 -21.421875 C 3.285156 -21.804688 2.875 -22.128906 2.875 -22.390625 C 2.875 -22.921875 3.257812 -23.1875 4.03125 -23.1875 C 4.382812 -23.1875 4.738281 -23.160156 5.09375 -23.109375 C 6.113281 -23.003906 6.703125 -22.953125 6.859375 -22.953125 C 7.242188 -22.953125 7.8125 -22.988281 8.5625 -23.0625 C 9.320312 -23.144531 9.894531 -23.1875 10.28125 -23.1875 C 10.78125 -23.1875 11.03125 -22.859375 11.03125 -22.203125 Z M 11.03125 -22.203125 "/></g></g></g><g fill="#c66f2c" fill-opacity="1"><g transform="translate(150.723851, 51.876716)"><g><path d="M 24.59375 -0.765625 C 24.59375 -0.0976562 24.429688 0.234375 24.109375 0.234375 C 23.753906 0.234375 23.28125 0.191406 22.6875 0.109375 C 21.289062 -0.0546875 20.394531 -0.140625 20 -0.140625 C 19.675781 -0.140625 18.992188 -0.0625 17.953125 0.09375 C 17.398438 0.1875 16.941406 0.234375 16.578125 0.234375 C 15.753906 0.234375 15.34375 -0.148438 15.34375 -0.921875 C 15.34375 -1.179688 15.578125 -1.425781 16.046875 -1.65625 C 16.679688 -1.96875 17.113281 -2.25 17.34375 -2.5 C 17.800781 -3 18.03125 -3.710938 18.03125 -4.640625 C 18.03125 -5.523438 17.84375 -6.382812 17.46875 -7.21875 C 16.988281 -8.28125 16.359375 -8.8125 15.578125 -8.8125 C 15.328125 -8.8125 14.945312 -8.820312 14.4375 -8.84375 C 13.925781 -8.875 13.539062 -8.890625 13.28125 -8.890625 C 13.007812 -8.890625 12.613281 -8.878906 12.09375 -8.859375 C 11.539062 -8.828125 11.140625 -8.8125 10.890625 -8.8125 C 9.816406 -8.800781 8.863281 -7.800781 8.03125 -5.8125 C 7.40625 -4.332031 7.09375 -3.335938 7.09375 -2.828125 C 7.09375 -2.359375 7.5625 -1.988281 8.5 -1.71875 C 9.4375 -1.445312 9.90625 -1.128906 9.90625 -0.765625 C 9.90625 -0.128906 9.507812 0.1875 8.71875 0.1875 C 8.3125 0.1875 7.835938 0.15625 7.296875 0.09375 C 6.046875 -0.0195312 5.203125 -0.078125 4.765625 -0.078125 C 4.078125 -0.078125 3.195312 0.0078125 2.125 0.1875 L 1.6875 0.1875 C 0.851562 0.1875 0.4375 -0.0820312 0.4375 -0.625 C 0.4375 -1.226562 0.851562 -1.613281 1.6875 -1.78125 C 2.820312 -2.019531 3.5 -2.222656 3.71875 -2.390625 C 4.726562 -3.203125 5.554688 -4.421875 6.203125 -6.046875 L 8.828125 -12.53125 C 9.847656 -15.0625 10.726562 -17.3125 11.46875 -19.28125 C 12.082031 -20.925781 12.566406 -22.0625 12.921875 -22.6875 C 13.421875 -23.5625 13.90625 -24 14.375 -24 C 14.9375 -24 15.359375 -23.53125 15.640625 -22.59375 C 15.785156 -22.007812 16.015625 -21.140625 16.328125 -19.984375 C 16.703125 -18.828125 17.226562 -17.179688 17.90625 -15.046875 C 18.445312 -13.210938 18.925781 -11.503906 19.34375 -9.921875 C 19.570312 -8.992188 19.921875 -7.601562 20.390625 -5.75 C 20.796875 -4.238281 21.289062 -3.238281 21.875 -2.75 C 22.050781 -2.59375 22.617188 -2.3125 23.578125 -1.90625 C 24.253906 -1.601562 24.59375 -1.222656 24.59375 -0.765625 Z M 15.9375 -12.046875 C 15.9375 -12.347656 15.679688 -13.367188 15.171875 -15.109375 C 14.523438 -17.285156 13.925781 -18.375 13.375 -18.375 C 12.976562 -18.375 12.359375 -17.15625 11.515625 -14.71875 C 10.953125 -13.050781 10.671875 -12.007812 10.671875 -11.59375 C 10.671875 -11.007812 11.007812 -10.660156 11.6875 -10.546875 C 11.71875 -10.535156 12.289062 -10.53125 13.40625 -10.53125 L 14.09375 -10.53125 C 14.875 -10.53125 15.359375 -10.601562 15.546875 -10.75 C 15.804688 -10.925781 15.9375 -11.359375 15.9375 -12.046875 Z M 15.9375 -12.046875 "/></g></g></g><g fill="#355f31" fill-opacity="1"><g transform="translate(21.365977, 66.763004)"><g><path d="M 8.78125 -0.3125 C 8.78125 -0.0625 8.632812 0.0625 8.34375 0.0625 C 8.238281 0.0625 8.039062 0.0390625 7.75 0 C 7.59375 -0.0195312 7.460938 -0.03125 7.359375 -0.03125 C 7.242188 -0.03125 7.035156 -0.015625 6.734375 0.015625 C 6.554688 0.0234375 6.414062 0.03125 6.3125 0.03125 C 6.101562 0.03125 6 -0.0976562 6 -0.359375 C 6 -0.421875 6.070312 -0.476562 6.21875 -0.53125 C 6.425781 -0.601562 6.566406 -0.664062 6.640625 -0.71875 C 6.785156 -0.832031 6.859375 -1.007812 6.859375 -1.25 C 6.859375 -1.457031 6.851562 -1.765625 6.84375 -2.171875 C 6.832031 -2.585938 6.828125 -2.898438 6.828125 -3.109375 C 6.828125 -3.453125 6.691406 -3.628906 6.421875 -3.640625 C 5.203125 -3.660156 4.582031 -3.671875 4.5625 -3.671875 C 4.363281 -3.671875 4.066406 -3.660156 3.671875 -3.640625 C 3.273438 -3.617188 2.984375 -3.609375 2.796875 -3.609375 C 2.535156 -3.609375 2.40625 -3.425781 2.40625 -3.0625 C 2.40625 -2.757812 2.398438 -2.40625 2.390625 -2 L 2.375 -1.296875 C 2.375 -0.867188 2.59375 -0.617188 3.03125 -0.546875 C 3.25 -0.503906 3.359375 -0.40625 3.359375 -0.25 C 3.359375 -0.0625 3.253906 0.03125 3.046875 0.03125 C 2.910156 0.03125 2.78125 0.0234375 2.65625 0.015625 C 2.269531 -0.015625 2.050781 -0.03125 2 -0.03125 C 1.914062 -0.03125 1.71875 -0.0195312 1.40625 0 C 1.238281 0.0195312 1.113281 0.03125 1.03125 0.03125 C 0.75 0.03125 0.609375 -0.0625 0.609375 -0.25 C 0.609375 -0.332031 0.675781 -0.398438 0.8125 -0.453125 C 1.007812 -0.535156 1.140625 -0.601562 1.203125 -0.65625 C 1.335938 -0.789062 1.40625 -0.976562 1.40625 -1.21875 C 1.40625 -1.539062 1.425781 -2.019531 1.46875 -2.65625 C 1.519531 -3.28125 1.546875 -3.757812 1.546875 -4.09375 L 1.53125 -6.515625 C 1.53125 -6.859375 1.457031 -7.113281 1.3125 -7.28125 C 1.226562 -7.375 1.082031 -7.460938 0.875 -7.546875 C 0.726562 -7.597656 0.65625 -7.664062 0.65625 -7.75 C 0.65625 -7.945312 0.773438 -8.046875 1.015625 -8.046875 C 1.140625 -8.046875 1.328125 -8.03125 1.578125 -8 C 1.835938 -7.96875 2.023438 -7.953125 2.140625 -7.953125 C 2.273438 -7.953125 2.46875 -7.96875 2.71875 -8 C 2.96875 -8.03125 3.15625 -8.046875 3.28125 -8.046875 C 3.457031 -8.046875 3.546875 -7.945312 3.546875 -7.75 C 3.546875 -7.664062 3.453125 -7.597656 3.265625 -7.546875 C 3.023438 -7.460938 2.859375 -7.378906 2.765625 -7.296875 C 2.578125 -7.117188 2.484375 -6.859375 2.484375 -6.515625 C 2.484375 -6.347656 2.484375 -6.109375 2.484375 -5.796875 C 2.460938 -5.460938 2.453125 -5.226562 2.453125 -5.09375 C 2.453125 -4.570312 2.5625 -4.3125 2.78125 -4.3125 C 2.976562 -4.3125 3.28125 -4.300781 3.6875 -4.28125 C 4.09375 -4.269531 4.394531 -4.265625 4.59375 -4.265625 C 4.8125 -4.265625 5.132812 -4.269531 5.5625 -4.28125 C 5.988281 -4.300781 6.3125 -4.3125 6.53125 -4.3125 C 6.644531 -4.3125 6.742188 -4.382812 6.828125 -4.53125 C 6.910156 -4.65625 6.953125 -4.78125 6.953125 -4.90625 L 6.921875 -6.53125 C 6.921875 -6.875 6.847656 -7.125 6.703125 -7.28125 C 6.617188 -7.375 6.484375 -7.453125 6.296875 -7.515625 C 6.148438 -7.554688 6.078125 -7.613281 6.078125 -7.6875 C 6.078125 -7.90625 6.1875 -8.015625 6.40625 -8.015625 C 6.519531 -8.015625 6.6875 -8 6.90625 -7.96875 C 7.132812 -7.9375 7.304688 -7.921875 7.421875 -7.921875 C 7.546875 -7.921875 7.757812 -7.941406 8.0625 -7.984375 C 8.238281 -8.003906 8.390625 -8.015625 8.515625 -8.015625 C 8.679688 -8.015625 8.765625 -7.945312 8.765625 -7.8125 C 8.765625 -7.632812 8.675781 -7.515625 8.5 -7.453125 C 8.082031 -7.304688 7.875 -6.972656 7.875 -6.453125 C 7.875 -6.191406 7.835938 -5.675781 7.765625 -4.90625 C 7.734375 -4.519531 7.71875 -4.210938 7.71875 -3.984375 C 7.71875 -3.679688 7.726562 -3.222656 7.75 -2.609375 C 7.78125 -1.992188 7.796875 -1.535156 7.796875 -1.234375 C 7.796875 -1.003906 7.878906 -0.832031 8.046875 -0.71875 C 8.117188 -0.675781 8.273438 -0.613281 8.515625 -0.53125 C 8.691406 -0.476562 8.78125 -0.40625 8.78125 -0.3125 Z M 8.78125 -0.3125 "/></g></g></g><g fill="#355f31" fill-opacity="1"><g transform="translate(35.885539, 66.763004)"><g><path d="M 4.53125 -3.671875 C 4.53125 -2.859375 4.257812 -2.0625 3.71875 -1.28125 C 3.113281 -0.425781 2.425781 0 1.65625 0 C 1.15625 0 0.769531 -0.171875 0.5 -0.515625 C 0.257812 -0.835938 0.140625 -1.253906 0.140625 -1.765625 C 0.140625 -2.617188 0.398438 -3.410156 0.921875 -4.140625 C 1.492188 -4.953125 2.191406 -5.359375 3.015625 -5.359375 C 4.023438 -5.359375 4.53125 -4.796875 4.53125 -3.671875 Z M 3.671875 -3.6875 C 3.671875 -4.300781 3.425781 -4.609375 2.9375 -4.609375 C 2.425781 -4.609375 1.957031 -4.238281 1.53125 -3.5 C 1.132812 -2.820312 0.9375 -2.207031 0.9375 -1.65625 C 0.9375 -1.125 1.207031 -0.859375 1.75 -0.859375 C 2.300781 -0.859375 2.769531 -1.203125 3.15625 -1.890625 C 3.5 -2.492188 3.671875 -3.09375 3.671875 -3.6875 Z M 3.671875 -3.6875 "/></g></g></g><g fill="#355f31" fill-opacity="1"><g transform="translate(45.862386, 66.763004)"><g><path d="M 3.859375 -5.1875 C 3.859375 -4.84375 3.617188 -4.671875 3.140625 -4.671875 C 3.066406 -4.671875 2.953125 -4.675781 2.796875 -4.6875 C 2.648438 -4.707031 2.539062 -4.71875 2.46875 -4.71875 C 2.238281 -4.71875 2.078125 -4.617188 1.984375 -4.421875 C 1.953125 -4.367188 1.894531 -4.175781 1.8125 -3.84375 L 1.15625 -1.375 C 1.144531 -1.34375 1.140625 -1.304688 1.140625 -1.265625 C 1.140625 -1.015625 1.253906 -0.890625 1.484375 -0.890625 C 1.679688 -0.890625 1.878906 -1.046875 2.078125 -1.359375 C 2.285156 -1.679688 2.453125 -1.84375 2.578125 -1.84375 C 2.773438 -1.84375 2.875 -1.757812 2.875 -1.59375 C 2.875 -1.382812 2.75 -1.097656 2.5 -0.734375 C 2.164062 -0.242188 1.695312 0 1.09375 0 C 0.875 0 0.671875 -0.0664062 0.484375 -0.203125 C 0.285156 -0.347656 0.1875 -0.523438 0.1875 -0.734375 C 0.1875 -1.097656 0.453125 -2.148438 0.984375 -3.890625 C 1.085938 -4.234375 1.140625 -4.4375 1.140625 -4.5 C 1.140625 -4.601562 1.050781 -4.660156 0.875 -4.671875 C 1 -4.660156 0.875 -4.65625 0.5 -4.65625 C 0.332031 -4.65625 0.25 -4.71875 0.25 -4.84375 C 0.25 -5.082031 0.347656 -5.234375 0.546875 -5.296875 C 0.648438 -5.328125 0.847656 -5.34375 1.140625 -5.34375 C 1.367188 -5.34375 1.539062 -5.507812 1.65625 -5.84375 C 1.78125 -6.226562 1.875 -6.441406 1.9375 -6.484375 C 2.007812 -6.535156 2.144531 -6.5625 2.34375 -6.5625 C 2.53125 -6.5625 2.625 -6.503906 2.625 -6.390625 C 2.625 -6.296875 2.585938 -6.164062 2.515625 -6 C 2.441406 -5.832031 2.40625 -5.703125 2.40625 -5.609375 C 2.40625 -5.410156 2.519531 -5.3125 2.75 -5.3125 C 2.851562 -5.3125 3.015625 -5.316406 3.234375 -5.328125 C 3.453125 -5.347656 3.613281 -5.359375 3.71875 -5.359375 C 3.8125 -5.359375 3.859375 -5.300781 3.859375 -5.1875 Z M 3.859375 -5.1875 "/></g></g></g><g fill="#355f31" fill-opacity="1"><g transform="translate(55.111155, 66.763004)"><g><path d="M 4.015625 -4.25 C 4.015625 -3.820312 3.785156 -3.445312 3.328125 -3.125 C 2.898438 -2.820312 2.46875 -2.671875 2.03125 -2.671875 C 1.957031 -2.671875 1.851562 -2.679688 1.71875 -2.703125 C 1.59375 -2.734375 1.492188 -2.75 1.421875 -2.75 C 1.003906 -2.75 0.796875 -2.425781 0.796875 -1.78125 C 0.796875 -1.164062 1.09375 -0.859375 1.6875 -0.859375 C 2.03125 -0.859375 2.390625 -1 2.765625 -1.28125 C 3.148438 -1.570312 3.328125 -1.71875 3.296875 -1.71875 C 3.546875 -1.71875 3.671875 -1.648438 3.671875 -1.515625 C 3.671875 -1.472656 3.648438 -1.40625 3.609375 -1.3125 C 3.398438 -0.925781 3.109375 -0.609375 2.734375 -0.359375 C 2.359375 -0.117188 1.953125 0 1.515625 0 C 0.984375 0 0.585938 -0.203125 0.328125 -0.609375 C 0.109375 -0.960938 0 -1.414062 0 -1.96875 C 0 -2.832031 0.242188 -3.597656 0.734375 -4.265625 C 1.285156 -4.992188 1.976562 -5.359375 2.8125 -5.359375 C 3.125 -5.359375 3.398438 -5.25 3.640625 -5.03125 C 3.890625 -4.820312 4.015625 -4.5625 4.015625 -4.25 Z M 3.140625 -3.96875 C 3.140625 -4.144531 3.070312 -4.296875 2.9375 -4.421875 C 2.8125 -4.546875 2.660156 -4.609375 2.484375 -4.609375 C 2.265625 -4.609375 2.046875 -4.484375 1.828125 -4.234375 C 1.609375 -3.992188 1.5 -3.765625 1.5 -3.546875 C 1.5 -3.441406 1.554688 -3.351562 1.671875 -3.28125 C 1.773438 -3.207031 1.878906 -3.171875 1.984375 -3.171875 C 2.210938 -3.171875 2.457031 -3.25 2.71875 -3.40625 C 3 -3.570312 3.140625 -3.757812 3.140625 -3.96875 Z M 3.140625 -3.96875 "/></g></g></g><g fill="#355f31" fill-opacity="1"><g transform="translate(64.384814, 66.763004)"><g><path d="M 4.296875 -10.734375 C 4.296875 -10.703125 4.269531 -10.644531 4.21875 -10.5625 C 4.175781 -10.476562 4.109375 -10.351562 4.015625 -10.1875 C 3.867188 -10.050781 3.695312 -9.820312 3.5 -9.5 C 3.476562 -9.457031 3.421875 -9.28125 3.328125 -8.96875 L 2.953125 -7.640625 C 2.710938 -6.773438 2.363281 -5.5 1.90625 -3.8125 C 1.53125 -2.425781 1.34375 -1.71875 1.34375 -1.6875 C 1.34375 -1.59375 1.421875 -1.507812 1.578125 -1.4375 C 1.710938 -1.375 1.832031 -1.34375 1.9375 -1.34375 C 1.988281 -1.34375 2.066406 -1.363281 2.171875 -1.40625 C 2.285156 -1.445312 2.367188 -1.46875 2.421875 -1.46875 C 2.554688 -1.46875 2.625 -1.398438 2.625 -1.265625 C 2.625 -1.054688 2.398438 -0.785156 1.953125 -0.453125 C 1.523438 -0.148438 1.195312 0 0.96875 0 C 0.46875 0 0.21875 -0.210938 0.21875 -0.640625 C 0.21875 -0.785156 0.335938 -1.304688 0.578125 -2.203125 C 0.742188 -2.765625 0.90625 -3.328125 1.0625 -3.890625 L 1.78125 -6.65625 C 1.925781 -7.132812 2.070312 -7.613281 2.21875 -8.09375 C 2.4375 -8.800781 2.546875 -9.25 2.546875 -9.4375 C 2.546875 -9.5625 2.425781 -9.703125 2.1875 -9.859375 C 1.945312 -10.015625 1.828125 -10.117188 1.828125 -10.171875 C 1.828125 -10.253906 1.898438 -10.304688 2.046875 -10.328125 C 2.273438 -10.335938 2.609375 -10.378906 3.046875 -10.453125 C 3.109375 -10.472656 3.296875 -10.546875 3.609375 -10.671875 C 3.867188 -10.785156 4.039062 -10.84375 4.125 -10.84375 C 4.238281 -10.84375 4.296875 -10.804688 4.296875 -10.734375 Z M 4.296875 -10.734375 "/></g></g></g><g fill="#355f31" fill-opacity="1"><g transform="translate(73.042408, 66.763004)"><g/></g></g><g fill="#355f31" fill-opacity="1"><g transform="translate(81.239507, 66.763004)"><g><path d="M 9.140625 -4.5625 C 9.140625 -3.46875 8.90625 -2.921875 8.4375 -2.921875 C 8.289062 -2.921875 8.046875 -3.039062 7.703125 -3.28125 C 7.472656 -3.445312 7.238281 -3.613281 7 -3.78125 C 6.84375 -3.226562 6.679688 -2.769531 6.515625 -2.40625 C 6.171875 -1.65625 5.703125 -1.050781 5.109375 -0.59375 C 4.460938 -0.09375 3.75 0.15625 2.96875 0.15625 C 2.15625 0.15625 1.503906 -0.125 1.015625 -0.6875 C 0.546875 -1.21875 0.3125 -1.898438 0.3125 -2.734375 C 0.3125 -3.390625 0.472656 -3.988281 0.796875 -4.53125 C 1.117188 -5.082031 1.566406 -5.53125 2.140625 -5.875 C 2.421875 -6.039062 2.664062 -6.125 2.875 -6.125 C 3.363281 -6.125 3.609375 -5.828125 3.609375 -5.234375 C 3.609375 -5.148438 3.597656 -5.039062 3.578125 -4.90625 L 3.609375 -4.890625 C 4.671875 -5.847656 5.203125 -6.738281 5.203125 -7.5625 C 5.203125 -7.625 5.1875 -7.71875 5.15625 -7.84375 C 5.132812 -7.96875 5.125 -8.0625 5.125 -8.125 C 5.125 -8.40625 5.289062 -8.546875 5.625 -8.546875 C 5.96875 -8.546875 6.140625 -8.304688 6.140625 -7.828125 C 6.140625 -7.046875 5.515625 -6.078125 4.265625 -4.921875 C 3.316406 -4.054688 2.3125 -3.3125 1.25 -2.6875 C 1.351562 -2.09375 1.601562 -1.617188 2 -1.265625 C 2.394531 -0.910156 2.890625 -0.734375 3.484375 -0.734375 C 4.304688 -0.734375 5.007812 -1.09375 5.59375 -1.8125 C 6.070312 -2.40625 6.414062 -3.148438 6.625 -4.046875 C 6.238281 -4.335938 5.898438 -4.484375 5.609375 -4.484375 C 5.234375 -4.484375 5.046875 -4.296875 5.046875 -3.921875 C 5.046875 -3.703125 5.085938 -3.503906 5.171875 -3.328125 C 5.234375 -3.203125 5.265625 -3.128906 5.265625 -3.109375 C 5.265625 -2.941406 5.101562 -2.859375 4.78125 -2.859375 C 4.4375 -2.859375 4.265625 -3.078125 4.265625 -3.515625 C 4.265625 -3.734375 4.34375 -3.945312 4.5 -4.15625 C 4.664062 -4.382812 4.898438 -4.597656 5.203125 -4.796875 C 5.554688 -5.015625 5.851562 -5.125 6.09375 -5.125 C 6.507812 -5.125 7.175781 -4.765625 8.09375 -4.046875 C 8.257812 -3.921875 8.378906 -3.859375 8.453125 -3.859375 C 8.617188 -3.859375 8.703125 -4.296875 8.703125 -5.171875 C 8.703125 -5.296875 8.757812 -5.359375 8.875 -5.359375 C 9.050781 -5.359375 9.140625 -5.09375 9.140625 -4.5625 Z M 2.875 -4.765625 C 2.875 -5.242188 2.707031 -5.484375 2.375 -5.484375 C 2.101562 -5.484375 1.84375 -5.28125 1.59375 -4.875 C 1.332031 -4.445312 1.203125 -3.941406 1.203125 -3.359375 C 1.203125 -3.285156 1.207031 -3.210938 1.21875 -3.140625 C 1.894531 -3.515625 2.429688 -3.898438 2.828125 -4.296875 C 2.859375 -4.421875 2.875 -4.578125 2.875 -4.765625 Z M 2.875 -4.765625 "/></g></g></g><g fill="#355f31" fill-opacity="1"><g transform="translate(95.385699, 66.763004)"><g/></g></g><g fill="#355f31" fill-opacity="1"><g transform="translate(103.582794, 66.763004)"><g><path d="M 7.703125 -0.25 C 7.703125 -0.0625 7.570312 0.03125 7.3125 0.03125 C 7.289062 0.03125 7.210938 0.0234375 7.078125 0.015625 C 6.941406 0.015625 6.84375 0.015625 6.78125 0.015625 C 6.75 0.015625 6.675781 0.015625 6.5625 0.015625 C 6.445312 0.0234375 6.351562 0.03125 6.28125 0.03125 C 6.03125 0.03125 5.785156 -0.128906 5.546875 -0.453125 L 3.65625 -3.109375 C 3.46875 -3.378906 3.375 -3.519531 3.375 -3.53125 C 3.375 -3.59375 3.488281 -3.664062 3.71875 -3.75 C 3.875 -3.800781 4.023438 -3.851562 4.171875 -3.90625 C 4.867188 -4.25 5.21875 -4.878906 5.21875 -5.796875 C 5.21875 -6.265625 5.03125 -6.671875 4.65625 -7.015625 C 4.300781 -7.328125 3.882812 -7.484375 3.40625 -7.484375 C 2.945312 -7.484375 2.71875 -7.363281 2.71875 -7.125 C 2.71875 -6.820312 2.707031 -6.488281 2.6875 -6.125 C 2.65625 -5.476562 2.640625 -4.445312 2.640625 -3.03125 C 2.640625 -2.851562 2.644531 -2.582031 2.65625 -2.21875 C 2.675781 -1.851562 2.6875 -1.582031 2.6875 -1.40625 C 2.6875 -1.144531 2.789062 -0.929688 3 -0.765625 C 3.03125 -0.734375 3.21875 -0.632812 3.5625 -0.46875 C 3.769531 -0.363281 3.875 -0.242188 3.875 -0.109375 C 3.875 0.0234375 3.78125 0.09375 3.59375 0.09375 C 3.445312 0.09375 3.226562 0.0703125 2.9375 0.03125 C 2.65625 0 2.441406 -0.015625 2.296875 -0.015625 C 2.140625 -0.015625 1.910156 0 1.609375 0.03125 C 1.316406 0.0703125 1.097656 0.09375 0.953125 0.09375 C 0.765625 0.09375 0.671875 0.0195312 0.671875 -0.125 C 0.671875 -0.207031 0.753906 -0.300781 0.921875 -0.40625 C 1.160156 -0.5625 1.320312 -0.675781 1.40625 -0.75 C 1.570312 -0.925781 1.65625 -1.140625 1.65625 -1.390625 C 1.65625 -1.671875 1.660156 -2.085938 1.671875 -2.640625 C 1.691406 -3.203125 1.703125 -3.617188 1.703125 -3.890625 C 1.703125 -4.203125 1.695312 -4.613281 1.6875 -5.125 C 1.664062 -5.757812 1.648438 -6.164062 1.640625 -6.34375 C 1.628906 -6.914062 1.484375 -7.273438 1.203125 -7.421875 C 0.910156 -7.585938 0.765625 -7.695312 0.765625 -7.75 C 0.765625 -7.976562 0.898438 -8.09375 1.171875 -8.09375 C 1.304688 -8.09375 1.507812 -8.066406 1.78125 -8.015625 C 2.050781 -7.960938 2.253906 -7.9375 2.390625 -7.9375 C 2.554688 -7.9375 2.8125 -7.945312 3.15625 -7.96875 C 3.507812 -7.988281 3.769531 -8 3.9375 -8 C 4.59375 -8 5.132812 -7.835938 5.5625 -7.515625 C 6.03125 -7.160156 6.265625 -6.664062 6.265625 -6.03125 C 6.265625 -5.445312 6.097656 -4.921875 5.765625 -4.453125 C 5.441406 -4.003906 5 -3.664062 4.4375 -3.4375 C 4.5 -3.375 4.582031 -3.269531 4.6875 -3.125 C 4.769531 -3.007812 4.976562 -2.707031 5.3125 -2.21875 C 5.34375 -2.175781 5.546875 -1.894531 5.921875 -1.375 C 6.035156 -1.21875 6.179688 -1.066406 6.359375 -0.921875 C 6.597656 -0.722656 6.800781 -0.625 6.96875 -0.625 C 7.457031 -0.625 7.703125 -0.5 7.703125 -0.25 Z M 7.703125 -0.25 "/></g></g></g><g fill="#355f31" fill-opacity="1"><g transform="translate(116.129693, 66.763004)"><g><path d="M 4.015625 -4.25 C 4.015625 -3.820312 3.785156 -3.445312 3.328125 -3.125 C 2.898438 -2.820312 2.46875 -2.671875 2.03125 -2.671875 C 1.957031 -2.671875 1.851562 -2.679688 1.71875 -2.703125 C 1.59375 -2.734375 1.492188 -2.75 1.421875 -2.75 C 1.003906 -2.75 0.796875 -2.425781 0.796875 -1.78125 C 0.796875 -1.164062 1.09375 -0.859375 1.6875 -0.859375 C 2.03125 -0.859375 2.390625 -1 2.765625 -1.28125 C 3.148438 -1.570312 3.328125 -1.71875 3.296875 -1.71875 C 3.546875 -1.71875 3.671875 -1.648438 3.671875 -1.515625 C 3.671875 -1.472656 3.648438 -1.40625 3.609375 -1.3125 C 3.398438 -0.925781 3.109375 -0.609375 2.734375 -0.359375 C 2.359375 -0.117188 1.953125 0 1.515625 0 C 0.984375 0 0.585938 -0.203125 0.328125 -0.609375 C 0.109375 -0.960938 0 -1.414062 0 -1.96875 C 0 -2.832031 0.242188 -3.597656 0.734375 -4.265625 C 1.285156 -4.992188 1.976562 -5.359375 2.8125 -5.359375 C 3.125 -5.359375 3.398438 -5.25 3.640625 -5.03125 C 3.890625 -4.820312 4.015625 -4.5625 4.015625 -4.25 Z M 3.140625 -3.96875 C 3.140625 -4.144531 3.070312 -4.296875 2.9375 -4.421875 C 2.8125 -4.546875 2.660156 -4.609375 2.484375 -4.609375 C 2.265625 -4.609375 2.046875 -4.484375 1.828125 -4.234375 C 1.609375 -3.992188 1.5 -3.765625 1.5 -3.546875 C 1.5 -3.441406 1.554688 -3.351562 1.671875 -3.28125 C 1.773438 -3.207031 1.878906 -3.171875 1.984375 -3.171875 C 2.210938 -3.171875 2.457031 -3.25 2.71875 -3.40625 C 3 -3.570312 3.140625 -3.757812 3.140625 -3.96875 Z M 3.140625 -3.96875 "/></g></g></g><g fill="#355f31" fill-opacity="1"><g transform="translate(125.403349, 66.763004)"><g><path d="M 3.5 -4.421875 C 3.5 -4.035156 3.429688 -3.84375 3.296875 -3.84375 C 3.234375 -3.84375 3.070312 -3.960938 2.8125 -4.203125 C 2.550781 -4.441406 2.320312 -4.5625 2.125 -4.5625 C 1.914062 -4.5625 1.738281 -4.476562 1.59375 -4.3125 C 1.445312 -4.144531 1.375 -3.953125 1.375 -3.734375 C 1.375 -3.554688 1.53125 -3.328125 1.84375 -3.046875 C 2.414062 -2.535156 2.707031 -2.273438 2.71875 -2.265625 C 3.03125 -1.929688 3.1875 -1.609375 3.1875 -1.296875 C 3.1875 -0.910156 3.03125 -0.59375 2.71875 -0.34375 C 2.4375 -0.113281 2.09375 0 1.6875 0 C 1.363281 0 1.050781 -0.0664062 0.75 -0.203125 C 0.375 -0.367188 0.1875 -0.597656 0.1875 -0.890625 C 0.1875 -1.328125 0.257812 -1.546875 0.40625 -1.546875 C 0.40625 -1.546875 0.414062 -1.539062 0.4375 -1.53125 C 0.90625 -1.113281 1.300781 -0.90625 1.625 -0.90625 C 2.019531 -0.90625 2.21875 -1.078125 2.21875 -1.421875 C 2.21875 -1.554688 2.101562 -1.738281 1.875 -1.96875 C 1.519531 -2.320312 1.300781 -2.546875 1.21875 -2.640625 C 1 -2.941406 0.890625 -3.257812 0.890625 -3.59375 C 0.890625 -4.050781 1.015625 -4.445312 1.265625 -4.78125 C 1.546875 -5.164062 1.90625 -5.359375 2.34375 -5.359375 C 2.5 -5.359375 2.695312 -5.3125 2.9375 -5.21875 C 3.195312 -5.113281 3.363281 -5 3.4375 -4.875 C 3.476562 -4.78125 3.5 -4.628906 3.5 -4.421875 Z M 3.5 -4.421875 "/></g></g></g><g fill="#355f31" fill-opacity="1"><g transform="translate(134.645891, 66.763004)"><g><path d="M 4.53125 -3.671875 C 4.53125 -2.859375 4.257812 -2.0625 3.71875 -1.28125 C 3.113281 -0.425781 2.425781 0 1.65625 0 C 1.15625 0 0.769531 -0.171875 0.5 -0.515625 C 0.257812 -0.835938 0.140625 -1.253906 0.140625 -1.765625 C 0.140625 -2.617188 0.398438 -3.410156 0.921875 -4.140625 C 1.492188 -4.953125 2.191406 -5.359375 3.015625 -5.359375 C 4.023438 -5.359375 4.53125 -4.796875 4.53125 -3.671875 Z M 3.671875 -3.6875 C 3.671875 -4.300781 3.425781 -4.609375 2.9375 -4.609375 C 2.425781 -4.609375 1.957031 -4.238281 1.53125 -3.5 C 1.132812 -2.820312 0.9375 -2.207031 0.9375 -1.65625 C 0.9375 -1.125 1.207031 -0.859375 1.75 -0.859375 C 2.300781 -0.859375 2.769531 -1.203125 3.15625 -1.890625 C 3.5 -2.492188 3.671875 -3.09375 3.671875 -3.6875 Z M 3.671875 -3.6875 "/></g></g></g><g fill="#355f31" fill-opacity="1"><g transform="translate(144.622734, 66.763004)"><g><path d="M 4.640625 -4.890625 C 4.640625 -4.679688 4.59375 -4.476562 4.5 -4.28125 C 4.382812 -4.03125 4.234375 -3.90625 4.046875 -3.90625 C 3.953125 -3.90625 3.847656 -3.988281 3.734375 -4.15625 C 3.628906 -4.332031 3.53125 -4.421875 3.4375 -4.421875 C 3.175781 -4.421875 2.757812 -3.9375 2.1875 -2.96875 C 1.976562 -2.625 1.820312 -2.285156 1.71875 -1.953125 L 1.140625 -0.203125 C 1.085938 -0.0664062 0.921875 0 0.640625 0 C 0.515625 0 0.410156 -0.0546875 0.328125 -0.171875 C 0.242188 -0.285156 0.203125 -0.410156 0.203125 -0.546875 C 0.203125 -0.691406 0.269531 -0.957031 0.40625 -1.34375 C 0.582031 -1.800781 0.753906 -2.257812 0.921875 -2.71875 C 1.140625 -3.351562 1.25 -3.800781 1.25 -4.0625 C 1.25 -4.414062 1.179688 -4.59375 1.046875 -4.59375 C 1.003906 -4.59375 0.945312 -4.578125 0.875 -4.546875 C 0.800781 -4.515625 0.742188 -4.5 0.703125 -4.5 C 0.597656 -4.5 0.546875 -4.550781 0.546875 -4.65625 C 0.546875 -4.832031 0.648438 -5 0.859375 -5.15625 C 1.054688 -5.289062 1.242188 -5.359375 1.421875 -5.359375 C 1.765625 -5.359375 1.9375 -5.207031 1.9375 -4.90625 C 1.9375 -4.789062 1.90625 -4.628906 1.84375 -4.421875 C 1.789062 -4.210938 1.765625 -4.050781 1.765625 -3.9375 C 1.765625 -3.726562 1.828125 -3.625 1.953125 -3.625 C 2.035156 -3.625 2.1875 -3.773438 2.40625 -4.078125 C 2.707031 -4.472656 2.945312 -4.75 3.125 -4.90625 C 3.445312 -5.207031 3.773438 -5.359375 4.109375 -5.359375 C 4.460938 -5.359375 4.640625 -5.203125 4.640625 -4.890625 Z M 4.640625 -4.890625 "/></g></g></g><g fill="#355f31" fill-opacity="1"><g transform="translate(154.487565, 66.763004)"><g><path d="M 3.859375 -5.1875 C 3.859375 -4.84375 3.617188 -4.671875 3.140625 -4.671875 C 3.066406 -4.671875 2.953125 -4.675781 2.796875 -4.6875 C 2.648438 -4.707031 2.539062 -4.71875 2.46875 -4.71875 C 2.238281 -4.71875 2.078125 -4.617188 1.984375 -4.421875 C 1.953125 -4.367188 1.894531 -4.175781 1.8125 -3.84375 L 1.15625 -1.375 C 1.144531 -1.34375 1.140625 -1.304688 1.140625 -1.265625 C 1.140625 -1.015625 1.253906 -0.890625 1.484375 -0.890625 C 1.679688 -0.890625 1.878906 -1.046875 2.078125 -1.359375 C 2.285156 -1.679688 2.453125 -1.84375 2.578125 -1.84375 C 2.773438 -1.84375 2.875 -1.757812 2.875 -1.59375 C 2.875 -1.382812 2.75 -1.097656 2.5 -0.734375 C 2.164062 -0.242188 1.695312 0 1.09375 0 C 0.875 0 0.671875 -0.0664062 0.484375 -0.203125 C 0.285156 -0.347656 0.1875 -0.523438 0.1875 -0.734375 C 0.1875 -1.097656 0.453125 -2.148438 0.984375 -3.890625 C 1.085938 -4.234375 1.140625 -4.4375 1.140625 -4.5 C 1.140625 -4.601562 1.050781 -4.660156 0.875 -4.671875 C 1 -4.660156 0.875 -4.65625 0.5 -4.65625 C 0.332031 -4.65625 0.25 -4.71875 0.25 -4.84375 C 0.25 -5.082031 0.347656 -5.234375 0.546875 -5.296875 C 0.648438 -5.328125 0.847656 -5.34375 1.140625 -5.34375 C 1.367188 -5.34375 1.539062 -5.507812 1.65625 -5.84375 C 1.78125 -6.226562 1.875 -6.441406 1.9375 -6.484375 C 2.007812 -6.535156 2.144531 -6.5625 2.34375 -6.5625 C 2.53125 -6.5625 2.625 -6.503906 2.625 -6.390625 C 2.625 -6.296875 2.585938 -6.164062 2.515625 -6 C 2.441406 -5.832031 2.40625 -5.703125 2.40625 -5.609375 C 2.40625 -5.410156 2.519531 -5.3125 2.75 -5.3125 C 2.851562 -5.3125 3.015625 -5.316406 3.234375 -5.328125 C 3.453125 -5.347656 3.613281 -5.359375 3.71875 -5.359375 C 3.8125 -5.359375 3.859375 -5.300781 3.859375 -5.1875 Z M 3.859375 -5.1875 "/></g></g></g></svg>